<svg xmlns="http://www.w3.org/2000/svg" xmlns:xlink="http://www.w3.org/1999/xlink" width="140" zoomAndPan="magnify" viewBox="0 0 104.88 104.999996" height="140" preserveAspectRatio="xMidYMid meet" version="1.0"><defs><clipPath id="6c940046c3"><path d="M 0 0.0585938 L 104.761719 0.0585938 L 104.761719 104.9375 L 0 104.9375 Z M 0 0.0585938 " clip-rule="nonzero"/></clipPath><clipPath id="093263d067"><path d="M 16.464844 21.109375 L 88.382812 21.109375 L 88.382812 84 L 16.464844 84 Z M 16.464844 21.109375 " clip-rule="nonzero"/></clipPath></defs><g clip-path="url(#6c940046c3)"><path fill="#ffffff" d="M 0 0.0585938 L 104.878906 0.0585938 L 104.878906 104.941406 L 0 104.941406 Z M 0 0.0585938 " fill-opacity="1" fill-rule="nonzero"/><path fill="#000000" d="M 0 0.0585938 L 104.878906 0.0585938 L 104.878906 104.941406 L 0 104.941406 Z M 0 0.0585938 " fill-opacity="1" fill-rule="nonzero"/></g><g clip-path="url(#093263d067)"><path fill="#ffffff" d="M 54.546875 22.308594 C 54.121094 21.566406 53.328125 21.109375 52.476562 21.109375 C 51.621094 21.109375 50.832031 21.566406 50.402344 22.308594 L 16.917969 80.308594 C 16.492188 81.046875 16.492188 81.957031 16.917969 82.699219 C 17.34375 83.4375 18.132812 83.894531 18.988281 83.894531 L 85.960938 83.894531 C 85.96875 83.894531 85.972656 83.894531 85.976562 83.894531 C 87.296875 83.894531 88.367188 82.824219 88.367188 81.503906 C 88.367188 80.972656 88.195312 80.484375 87.90625 80.089844 Z M 23.132812 79.109375 L 52.476562 28.285156 L 81.816406 79.109375 Z M 23.132812 79.109375 " fill-opacity="1" fill-rule="nonzero"/></g></svg>