<svg xmlns="http://www.w3.org/2000/svg" xmlns:xlink="http://www.w3.org/1999/xlink" width="140" zoomAndPan="magnify" viewBox="0 0 104.88 104.999996" height="140" preserveAspectRatio="xMidYMid meet" version="1.0"><defs><clipPath id="62cc6c9a5e"><path d="M 0 0.0585938 L 104.761719 0.0585938 L 104.761719 104.9375 L 0 104.9375 Z M 0 0.0585938 " clip-rule="nonzero"/></clipPath><clipPath id="da4d1f54e9"><path d="M 17.988281 18.046875 L 89.90625 18.046875 L 89.90625 89.964844 L 17.988281 89.964844 Z M 17.988281 18.046875 " clip-rule="nonzero"/></clipPath></defs><g clip-path="url(#62cc6c9a5e)"><path fill="#ffffff" d="M 0 0.0585938 L 104.878906 0.0585938 L 104.878906 104.941406 L 0 104.941406 Z M 0 0.0585938 " fill-opacity="1" fill-rule="nonzero"/><path fill="#000000" d="M 0 0.0585938 L 104.878906 0.0585938 L 104.878906 104.941406 L 0 104.941406 Z M 0 0.0585938 " fill-opacity="1" fill-rule="nonzero"/></g><g clip-path="url(#da4d1f54e9)"><path fill="#ffffff" d="M 54.082031 18.046875 C 34.140625 18.046875 17.988281 34.199219 17.988281 54.140625 C 17.988281 74.082031 34.140625 90.234375 54.082031 90.234375 C 74.023438 90.234375 90.175781 74.082031 90.175781 54.140625 C 90.175781 34.199219 74.023438 18.046875 54.082031 18.046875 Z M 54.082031 83.015625 C 38.128906 83.015625 25.207031 70.09375 25.207031 54.140625 C 25.207031 38.1875 38.128906 25.265625 54.082031 25.265625 C 70.035156 25.265625 82.957031 38.1875 82.957031 54.140625 C 82.957031 70.09375 70.035156 83.015625 54.082031 83.015625 Z M 54.082031 83.015625 " fill-opacity="1" fill-rule="nonzero"/></g></svg>