<svg xmlns="http://www.w3.org/2000/svg" xmlns:xlink="http://www.w3.org/1999/xlink" width="140" zoomAndPan="magnify" viewBox="0 0 104.88 104.999996" height="140" preserveAspectRatio="xMidYMid meet" version="1.0"><defs><clipPath id="c4e16c81c5"><path d="M 0 0.0585938 L 104.761719 0.0585938 L 104.761719 104.9375 L 0 104.9375 Z M 0 0.0585938 " clip-rule="nonzero"/></clipPath><clipPath id="bc64f4ead6"><path d="M 19.695312 19.753906 L 89.367188 19.753906 L 89.367188 89.425781 L 19.695312 89.425781 Z M 19.695312 19.753906 " clip-rule="nonzero"/></clipPath></defs><g clip-path="url(#c4e16c81c5)"><path fill="#ffffff" d="M 0 0.0585938 L 104.878906 0.0585938 L 104.878906 104.941406 L 0 104.941406 Z M 0 0.0585938 " fill-opacity="1" fill-rule="nonzero"/><path fill="#000000" d="M 0 0.0585938 L 104.878906 0.0585938 L 104.878906 104.941406 L 0 104.941406 Z M 0 0.0585938 " fill-opacity="1" fill-rule="nonzero"/></g><g clip-path="url(#bc64f4ead6)"><path fill="#ffffff" d="M 89.347656 37.253906 C 89.347656 27.601562 81.523438 19.773438 71.867188 19.773438 C 61.613281 19.773438 47.429688 19.773438 37.175781 19.773438 C 27.519531 19.773438 19.695312 27.601562 19.695312 37.253906 C 19.695312 47.511719 19.695312 61.695312 19.695312 71.949219 C 19.695312 81.601562 27.519531 89.429688 37.175781 89.429688 C 47.429688 89.429688 61.613281 89.429688 71.867188 89.429688 C 81.523438 89.429688 89.347656 81.601562 89.347656 71.949219 Z M 80.640625 37.253906 L 80.640625 71.949219 C 80.640625 76.792969 76.714844 80.722656 71.867188 80.722656 C 71.867188 80.722656 37.175781 80.722656 37.175781 80.722656 C 32.332031 80.722656 28.402344 76.792969 28.402344 71.949219 C 28.402344 71.949219 28.402344 37.253906 28.402344 37.253906 C 28.402344 32.410156 32.332031 28.480469 37.175781 28.480469 C 37.175781 28.480469 71.867188 28.480469 71.867188 28.480469 C 76.714844 28.480469 80.640625 32.410156 80.640625 37.253906 Z M 80.640625 37.253906 " fill-opacity="1" fill-rule="evenodd"/></g></svg>